{
  "accessors": [
    {
      "bufferView": 2,
      "componentType": 5126,
      "count": 1358,
      "max": [
        0.1442405730485916,
        0.16903133690357208,
        0.28064319491386414
      ],
      "min": [
        -0.1872255951166153,
        -0.1696702092885971,
        -8.998116391012445e-05
      ],
      "type": "VEC3"
    },
    {
      "bufferView": 2,
      "byteOffset": 16296,
      "componentType": 5126,
      "count": 1358,
      "max": [
        0.9938210248947144,
        0.9880960583686829,
        1.0
      ],
      "min": [
        -0.9973419904708862,
        -0.9880961179733276,
        -0.9975534081459045
      ],
      "type": "VEC3"
    },
    {
      "bufferView": 3,
      "componentType": 5126,
      "count": 1358,
      "max": [
        1.0,
        1.0,
        1.0,
        1.0
      ],
      "min": [
        0.6784313917160034,
        0.6784313917160034,
        0.6784313917160034,
        1.0
      ],
      "type": "VEC4"
    },
    {
      "bufferView": 1,
      "componentType": 5126,
      "count": 1358,
      "max": [
        0.994565486907959,
        0.9975000023841858
      ],
      "min": [
        0.0024999999441206455,
        0.0024999999441206455
      ],
      "type": "VEC2"
    },
    {
      "bufferView": 0,
      "componentType": 5125,
      "count": 4194,
      "type": "SCALAR"
    },
    {
      "bufferView": 2,
      "byteOffset": 32592,
      "componentType": 5126,
      "count": 9130,
      "max": [
        0.6083042621612549,
        0.5859777331352234,
        1.9484919309616089
      ],
      "min": [
        -0.5938512682914734,
        -0.6513231992721558,
        0.2002749741077423
      ],
      "type": "VEC3"
    },
    {
      "bufferView": 2,
      "byteOffset": 142152,
      "componentType": 5126,
      "count": 9130,
      "max": [
        0.6242677569389343,
        0.6211449503898621,
        0.9895225167274475
      ],
      "min": [
        -0.6283097267150879,
        -0.6283097863197327,
        0.7773150205612183
      ],
      "type": "VEC3"
    },
    {
      "bufferView": 3,
      "byteOffset": 21728,
      "componentType": 5126,
      "count": 9130,
      "max": [
        1.0,
        1.0,
        1.0,
        1.0
      ],
      "min": [
        0.0,
        0.0,
        0.0,
        1.0
      ],
      "type": "VEC4"
    },
    {
      "bufferView": 1,
      "byteOffset": 10864,
      "componentType": 5126,
      "count": 9130,
      "max": [
        1.0,
        1.0
      ],
      "min": [
        0.0,
        0.0
      ],
      "type": "VEC2"
    },
    {
      "bufferView": 0,
      "byteOffset": 16776,
      "componentType": 5125,
      "count": 29250,
      "type": "SCALAR"
    },
    {
      "bufferView": 2,
      "byteOffset": 251712,
      "componentType": 5126,
      "count": 12,
      "max": [
        0.006729286629706621,
        0.005827789660543203,
        1.9245859384536743
      ],
      "min": [
        -0.006729286629706621,
        -0.005827698390930891,
        0.2504454255104065
      ],
      "type": "VEC3"
    },
    {
      "bufferView": 2,
      "byteOffset": 251856,
      "componentType": 5126,
      "count": 12,
      "max": [
        0.7924062013626099,
        0.6862443685531616,
        0.6099938154220581
      ],
      "min": [
        -0.7924063205718994,
        -0.6862443685531616,
        -0.6099938154220581
      ],
      "type": "VEC3"
    },
    {
      "bufferView": 3,
      "byteOffset": 167808,
      "componentType": 5126,
      "count": 12,
      "max": [
        0.0,
        0.0,
        0.0,
        1.0
      ],
      "min": [
        0.0,
        0.0,
        0.0,
        1.0
      ],
      "type": "VEC4"
    },
    {
      "bufferView": 1,
      "byteOffset": 83904,
      "componentType": 5126,
      "count": 12,
      "max": [
        0.036808185279369354,
        0.031876884400844574
      ],
      "min": [
        -0.036808185279369354,
        -0.031876884400844574
      ],
      "type": "VEC2"
    },
    {
      "bufferView": 0,
      "byteOffset": 133776,
      "componentType": 5125,
      "count": 60,
      "type": "SCALAR"
    },
    {
      "bufferView": 2,
      "byteOffset": 252000,
      "componentType": 5126,
      "count": 3413,
      "max": [
        0.021571503952145576,
        0.021526042371988297,
        1.9448131322860718
      ],
      "min": [
        -0.022022482007741928,
        -0.02211671508848667,
        1.8613643646240234
      ],
      "type": "VEC3"
    },
    {
      "bufferView": 2,
      "byteOffset": 292956,
      "componentType": 5126,
      "count": 3413,
      "max": [
        0.9987792372703552,
        0.9995124340057373,
        1.0
      ],
      "min": [
        -0.9999210834503174,
        -0.9979745149612427,
        -1.0
      ],
      "type": "VEC3"
    },
    {
      "bufferView": 3,
      "byteOffset": 168000,
      "componentType": 5126,
      "count": 3413,
      "max": [
        1.0,
        1.0,
        1.0,
        1.0
      ],
      "min": [
        0.0,
        0.0,
        0.0,
        1.0
      ],
      "type": "VEC4"
    },
    {
      "bufferView": 1,
      "byteOffset": 84000,
      "componentType": 5126,
      "count": 3413,
      "max": [
        1.5,
        1.0
      ],
      "min": [
        -0.5,
        5.960464477539063e-08
      ],
      "type": "VEC2"
    },
    {
      "bufferView": 0,
      "byteOffset": 134016,
      "componentType": 5125,
      "count": 7314,
      "type": "SCALAR"
    }
  ],
  "asset": {
    "extras": {
      "author": "Zeneric (https://sketchfab.com/zeneric9)",
      "license": "CC-BY-4.0 (http://creativecommons.org/licenses/by/4.0/)",
      "source": "https://sketchfab.com/3d-models/cannabis-plant-a96820ed701b4050a800eedd1ebfcbec",
      "title": "Cannabis Plant."
    },
    "generator": "Sketchfab-14.8.0",
    "version": "2.0"
  },
  "bufferViews": [
    {
      "buffer": 0,
      "byteLength": 163272,
      "name": "floatBufferViews",
      "target": 34963
    },
    {
      "buffer": 0,
      "byteLength": 111304,
      "byteOffset": 163272,
      "byteStride": 8,
      "name": "floatBufferViews",
      "target": 34962
    },
    {
      "buffer": 0,
      "byteLength": 333912,
      "byteOffset": 274576,
      "byteStride": 12,
      "name": "floatBufferViews",
      "target": 34962
    },
    {
      "buffer": 0,
      "byteLength": 222608,
      "byteOffset": 608488,
      "byteStride": 16,
      "name": "floatBufferViews",
      "target": 34962
    }
  ],
  "buffers": [
    {
      "byteLength": 831096,
      "uri": "scene.bin"
    }
  ],
  "images": [
    {
      "uri": "textures/Material_66_baseColor.png"
    },
    {
      "uri": "textures/Material_26_baseColor.png"
    },
    {
      "uri": "textures/Material_27_baseColor.png"
    }
  ],
  "materials": [
    {
      "doubleSided": true,
      "name": "Material_66",
      "pbrMetallicRoughness": {
        "baseColorTexture": {
          "index": 0
        },
        "metallicFactor": 0.0,
        "roughnessFactor": 0.6
      }
    },
    {
      "alphaMode": "BLEND",
      "doubleSided": true,
      "name": "Material_26",
      "pbrMetallicRoughness": {
        "baseColorTexture": {
          "index": 1
        },
        "metallicFactor": 0.0,
        "roughnessFactor": 0.46171569284782576
      }
    },
    {
      "doubleSided": true,
      "name": "Material_28",
      "pbrMetallicRoughness": {
        "metallicFactor": 0.0,
        "roughnessFactor": 0.6
      }
    },
    {
      "doubleSided": true,
      "name": "Material_27",
      "pbrMetallicRoughness": {
        "baseColorTexture": {
          "index": 2
        },
        "metallicFactor": 0.0,
        "roughnessFactor": 0.6994307030269045
      }
    }
  ],
  "meshes": [
    {
      "name": "Object002_Material #66_0",
      "primitives": [
        {
          "attributes": {
            "COLOR_0": 2,
            "NORMAL": 1,
            "POSITION": 0,
            "TEXCOORD_0": 3
          },
          "indices": 4,
          "material": 0,
          "mode": 4
        }
      ]
    },
    {
      "name": "Object002_Material #26_0",
      "primitives": [
        {
          "attributes": {
            "COLOR_0": 7,
            "NORMAL": 6,
            "POSITION": 5,
            "TEXCOORD_0": 8
          },
          "indices": 9,
          "material": 1,
          "mode": 4
        }
      ]
    },
    {
      "name": "Object002_Material #28_0",
      "primitives": [
        {
          "attributes": {
            "COLOR_0": 12,
            "NORMAL": 11,
            "POSITION": 10,
            "TEXCOORD_0": 13
          },
          "indices": 14,
          "material": 2,
          "mode": 4
        }
      ]
    },
    {
      "name": "Object002_Material #27_0",
      "primitives": [
        {
          "attributes": {
            "COLOR_0": 17,
            "NORMAL": 16,
            "POSITION": 15,
            "TEXCOORD_0": 18
          },
          "indices": 19,
          "material": 3,
          "mode": 4
        }
      ]
    }
  ],
  "nodes": [
    {
      "children": [
        1
      ],
      "matrix": [
        1.0,
        0.0,
        0.0,
        0.0,
        0.0,
        2.220446049250313e-16,
        -1.0,
        0.0,
        0.0,
        1.0,
        2.220446049250313e-16,
        0.0,
        0.0,
        0.0,
        0.0,
        1.0
      ],
      "name": "Sketchfab_model"
    },
    {
      "children": [
        2
      ],
      "matrix": [
        0.02539999969303608,
        0.0,
        0.0,
        0.0,
        0.0,
        0.0,
        0.02539999969303608,
        0.0,
        0.0,
        -0.02539999969303608,
        0.0,
        0.0,
        0.0,
        0.0,
        0.0,
        1.0
      ],
      "name": "zenweed.fbx"
    },
    {
      "children": [
        3
      ],
      "name": "RootNode"
    },
    {
      "children": [
        4,
        5,
        6,
        7
      ],
      "matrix": [
        1.0,
        0.0,
        0.0,
        0.0,
        0.0,
        2.220446049250313e-16,
        -1.0,
        0.0,
        0.0,
        1.0,
        2.220446049250313e-16,
        0.0,
        0.0,
        0.0,
        0.0,
        1.0
      ],
      "name": "Object002"
    },
    {
      "mesh": 0,
      "name": "Object002_Material #66_0"
    },
    {
      "mesh": 1,
      "name": "Object002_Material #26_0"
    },
    {
      "mesh": 2,
      "name": "Object002_Material #28_0"
    },
    {
      "mesh": 3,
      "name": "Object002_Material #27_0"
    }
  ],
  "samplers": [
    {
      "magFilter": 9729,
      "minFilter": 9987,
      "wrapS": 10497,
      "wrapT": 10497
    }
  ],
  "scene": 0,
  "scenes": [
    {
      "name": "Sketchfab_Scene",
      "nodes": [
        0
      ]
    }
  ],
  "textures": [
    {
      "sampler": 0,
      "source": 0
    },
    {
      "sampler": 0,
      "source": 1
    },
    {
      "sampler": 0,
      "source": 2
    }
  ]
}
