<svg xmlns="http://www.w3.org/2000/svg" viewBox="0 0 200 1000" width="200" height="1000" fill="none" stroke="green" stroke-width="2">
    <!-- Stiel -->
    <line x1="100" y1="1000" x2="100" y2="100" stroke="green" stroke-width="4" />
    
    <!-- Blätter (asymmetrisch) -->
    <path d="M100 800 Q 50 750 80 700 Q 100 680 120 700 Q 150 750 100 800" fill="green" stroke="darkgreen" stroke-width="2" />
    <path d="M100 700 Q 30 650 70 600 Q 100 580 130 600 Q 170 650 100 700" fill="green" stroke="darkgreen" stroke-width="2" />
    <path d="M100 600 Q 10 550 60 500 Q 100 480 140 500 Q 190 550 100 600" fill="green" stroke="darkgreen" stroke-width="2" />
    
    <!-- Main Bud oben mit Schattierungen und Details -->
    <g>
        <ellipse cx="100" cy="80" rx="20" ry="25" fill="green" stroke="darkgreen" stroke-width="3" />
        <ellipse cx="90" cy="70" rx="15" ry="20" fill="green" stroke="darkgreen" stroke-width="3" />
        <ellipse cx="110" cy="70" rx="15" ry="20" fill="green" stroke="darkgreen" stroke-width="3" />
        
        <!-- Schatten und Textur -->
        <path d="M85 70 Q 100 85 115 70" fill="none" stroke="darkgreen" stroke-width="2" />
        <path d="M90 60 Q 100 75 110 60" fill="none" stroke="darkgreen" stroke-width="2" />
        <circle cx="100" cy="85" r="5" fill="lightgreen" />
        <circle cx="105" cy="75" r="3" fill="lightgreen" />
    </g>
</svg>
